<svg width="100" height="100" viewBox="0 0 100 100" fill="none" xmlns="http://www.w3.org/2000/svg">
<rect width="100" height="100" rx="10" fill="#3CA413"/>
<path d="M34.8889 38.6C33.8185 38.6 32.9219 38.2352 32.1991 37.5056C31.4763 36.776 31.1136 35.8741 31.1111 34.8C31.1086 33.7259 31.4713 32.824 32.1991 32.0944C32.927 31.3648 33.8236 31 34.8889 31H80.2222C81.2926 31 82.1904 31.3648 82.9158 32.0944C83.6411 32.824 84.0025 33.7259 84 34.8C83.9975 35.8741 83.6348 36.7773 82.912 37.5094C82.1892 38.2415 81.2926 38.6051 80.2222 38.6H34.8889ZM34.8889 53.8C33.8185 53.8 32.9219 53.4352 32.1991 52.7056C31.4763 51.976 31.1136 51.0741 31.1111 50C31.1086 48.9258 31.4713 48.024 32.1991 47.2944C32.927 46.5648 33.8236 46.2 34.8889 46.2H80.2222C81.2926 46.2 82.1904 46.5648 82.9158 47.2944C83.6411 48.024 84.0025 48.9258 84 50C83.9975 51.0741 83.6348 51.9772 82.912 52.7094C82.1892 53.4415 81.2926 53.805 80.2222 53.8H34.8889ZM34.8889 68.9999C33.8185 68.9999 32.9219 68.6351 32.1991 67.9056C31.4763 67.176 31.1136 66.2741 31.1111 65.2C31.1086 64.1258 31.4713 63.224 32.1991 62.4944C32.927 61.7648 33.8236 61.4 34.8889 61.4H80.2222C81.2926 61.4 82.1904 61.7648 82.9158 62.4944C83.6411 63.224 84.0025 64.1258 84 65.2C83.9975 66.2741 83.6348 67.1772 82.912 67.9093C82.1892 68.6415 81.2926 69.005 80.2222 68.9999H34.8889ZM19.7778 38.6C18.7074 38.6 17.8108 38.2352 17.088 37.5056C16.3652 36.776 16.0025 35.8741 16 34.8C15.9975 33.7259 16.3602 32.824 17.088 32.0944C17.8159 31.3648 18.7125 31 19.7778 31C20.8431 31 21.741 31.3648 22.4713 32.0944C23.2017 32.824 23.5631 33.7259 23.5556 34.8C23.548 35.8741 23.1853 36.7773 22.4676 37.5094C21.7498 38.2415 20.8532 38.6051 19.7778 38.6ZM19.7778 53.8C18.7074 53.8 17.8108 53.4352 17.088 52.7056C16.3652 51.976 16.0025 51.0741 16 50C15.9975 48.9258 16.3602 48.024 17.088 47.2944C17.8159 46.5648 18.7125 46.2 19.7778 46.2C20.8431 46.2 21.741 46.5648 22.4713 47.2944C23.2017 48.024 23.5631 48.9258 23.5556 50C23.548 51.0741 23.1853 51.9772 22.4676 52.7094C21.7498 53.4415 20.8532 53.805 19.7778 53.8ZM19.7778 68.9999C18.7074 68.9999 17.8108 68.6351 17.088 67.9056C16.3652 67.176 16.0025 66.2741 16 65.2C15.9975 64.1258 16.3602 63.224 17.088 62.4944C17.8159 61.7648 18.7125 61.4 19.7778 61.4C20.8431 61.4 21.741 61.7648 22.4713 62.4944C23.2017 63.224 23.5631 64.1258 23.5556 65.2C23.548 66.2741 23.1853 67.1772 22.4676 67.9093C21.7498 68.6415 20.8532 69.005 19.7778 68.9999Z" fill="white"/>
</svg>
